<svg xmlns="http://www.w3.org/2000/svg" width="550" height="700" version="1.1">
  <!--the gold color ellipse-->
  <ellipse cx="210" cy="150" rx="110" ry="50"
  style="fill:rgb(247, 51, 51);stroke:red;stroke-width:6" transform="rotate(30)" />
  <ellipse cx="170" cy="340" rx="110" ry="55"
  style="fill:rgb(247, 51, 51);stroke:red;stroke-width:6" transform="rotate(-27)" />

  <!--the white ellipse-->
  <ellipse cx="220" cy="170" rx="70" ry="25"
  style="fill:rgb(255, 255, 255);stroke:red;stroke-width:6" transform="rotate(28)" />
  <ellipse cx="140" cy="360" rx="70" ry="25"
  style="fill:rgb(255, 255, 255);stroke:red;stroke-width:6" transform="rotate(-27)" />

  <!--the circular ellipse-->
  <ellipse cx="200" cy="298" rx="50" ry="40"
  style="fill:rgb(247, 51, 51);stroke:red;stroke-width:6" />

  <!--the rectangle-->
  <pattern id="pinstripe" patternUnits="userSpaceOnUse" width="55" height="55">
	<line x1="27.5" y="0" x2="27.5" y2="55" stroke="beige" stroke-width="55" /> 
<circle id="pattern-circle" cx="-3" cy="-3" r="10" fill= "rgb(255, 180, 180)" />
</pattern>
  <rect x="25" y="295" rx="15" width="500" height="400" style="stroke:red;stroke-width:2;stroke-opacity:0.9;" fill="url(#pinstripe)"/>

  <!--the lines-->
  <line x1="150" y1="292" x2="150" y2="698" style="stroke:red;stroke-width:15" />
  <line x1="21" y1="425" x2="528" y2="425" style="stroke:red;stroke-width:15" />

  <!--the smiley face-->
  <circle cx="50" cy="50" r="15" fill="black" transform="translate(260,450)"/>
  <circle cx="50" cy="50" r="15" fill="black" transform="translate(360,450)"/>
  <path d="M 70 50 C 70 80, 150 80, 150 50" stroke="red" stroke-width="5" fill="transparent" transform="translate(250,500)" />
  Sorry, your browser does not support inline SVG.
</svg>